#!OML:ASF I:\Actors\actors\Patient Classification 2\Patient 1\Session 1\actor1.ASF
:FULLY-SPECIFIED
:DEGREES
405
root 2.35086 17.5942 3.46965 24.5934 -18.688 -14.1269
lowerback 34.3397 1.09303 -1.04841
upperback 6.15845 0.498487 -2.40782
thorax -10.6435 0.167548 -2.18578
lowerneck -16.6782 9.32602 12.0951
upperneck 18.2986 11.3449 -7.84987
head 9.70243 5.28839 -3.10047
rclavicle 3.97569e-014 -1.27222e-014
rhumerus -30.5969 47.905 -92.0226
rradius 95.1815
rwrist -4.48258
rhand -19.161 -70.2549
rfingers 7.12502
rthumb 7.1497 -259.886
lclavicle 3.97569e-014 -1.27222e-014
lhumerus 14.5503 2.92711 69.3611
lradius 68.9061
lwrist 85.2068
lhand -42.0555 -8.29543
lfingers 7.12502
lthumb -14.9486 21.1451
rfemur -21.8486 10.2082 14.1282
rtibia -8.56303
rfoot -0.983667 -15.0566
rtoes 1.28336
lfemur 7.22773 8.63662 -11.5946
ltibia -50.173
lfoot 23.8 17.683
ltoes 0.822377
406
root 2.34652 17.6091 3.51728 24.3263 -19.0355 -12.4717
lowerback 32.949 1.30673 -2.60847
upperback 6.07866 0.270378 -2.58207
thorax -10.1925 0.109457 -1.43429
lowerneck -16.7241 9.3277 11.8582
upperneck 19.1435 11.4025 -7.63616
head 9.9867 5.31216 -2.97784
rclavicle 1.27222e-014 -2.06736e-014
rhumerus -32.8204 47.5425 -92.3887
rradius 96.8174
rwrist -3.86147
rhand -18.5842 -70.1892
rfingers 7.12502
rthumb 7.70646 -259.971
lclavicle 1.27222e-014 -2.06736e-014
lhumerus 12.3704 2.41338 69.7705
lradius 71.399
lwrist 85.9647
lhand -42.3611 -9.47964
lfingers 7.12502
lthumb -15.2431 19.9388
rfemur -21.3587 9.86187 12.2519
rtibia -9.75478
rfoot -0.790844 -15.5769
rtoes 1.20175
lfemur 6.73137 8.0518 -13.3863
ltibia -49.6536
lfoot 23.4065 17.8453
ltoes 1.33399
407
root 2.33761 17.6262 3.56116 23.9792 -19.468 -11.8898
lowerback 31.9897 1.55119 -3.57867
upperback 6.02214 0.314313 -2.53505
thorax -9.86548 0.153752 -0.870361
lowerneck -16.5786 9.36746 11.5667
upperneck 19.8328 11.5511 -7.47249
head 10.1919 5.37327 -2.85583
rclavicle -6.36111e-015 2.8625e-014
rhumerus -35.3833 47.2233 -92.9051
rradius 98.3054
rwrist -3.38308
rhand -18.1184 -70.0888
rfingers 7.12502
rthumb 8.15609 -260.089
lclavicle -6.36111e-015 2.8625e-014
lhumerus 9.80318 2.09969 70.5139
lradius 73.9532
lwrist 86.59
lhand -42.9278 -10.6319
lfingers 7.12502
lthumb -15.7888 18.7442
rfemur -20.6998 10.1327 11.497
rtibia -10.4949
rfoot -0.665707 -15.8762
rtoes 0.655317
lfemur 6.94412 8.04507 -14.0839
ltibia -49.2527
lfoot 22.9757 17.8617
ltoes 1.3405
408
root 2.32879 17.6425 3.60404 23.6117 -19.7348 -11.8533
lowerback 31.1509 1.69064 -3.98466
upperback 6.35465 0.431887 -2.37754
thorax -9.9076 0.205323 -0.552817
lowerneck -16.4011 9.41147 11.2395
upperneck 20.5245 11.7094 -7.27352
head 10.389 5.4391 -2.71499
rclavicle 3.81667e-014 -6.36111e-015
rhumerus -38.3319 46.8526 -93.6658
rradius 99.6364
rwrist -3.23178
rhand -18.4566 -69.2812
rfingers 7.12502
rthumb 7.82965 -260.884
lclavicle 3.81667e-014 -6.36111e-015
lhumerus 7.06963 1.80133 71.5463
lradius 76.3983
lwrist 86.9449
lhand -43.641 -12.1359
lfingers 7.12502
lthumb -16.4756 17.1845
rfemur -19.8993 10.697 11.2999
rtibia -11.0689
rfoot -0.736223 -16.2145
rtoes 0.634856
lfemur 7.38489 8.21718 -14.2053
ltibia -48.8157
lfoot 22.6184 17.6258
ltoes 0.556488
409
root 2.32638 17.6579 3.64883 23.2322 -19.6854 -11.6822
lowerback 30.5749 1.62515 -4.20838
upperback 6.28853 0.332762 -2.2704
thorax -9.70373 0.168055 -0.255286
lowerneck -16.2659 9.48602 10.8166
upperneck 21.2023 11.8934 -6.93421
head 10.5758 5.52201 -2.50308
rclavicle 5.08889e-014 -4.13472e-014
rhumerus -41.3293 46.5278 -94.4264
rradius 100.928
rwrist -2.95966
rhand -18.2723 -67.9215
rfingers 7.12502
rthumb 8.00754 -262.25
lclavicle 5.08889e-014 -4.13472e-014
lhumerus 4.39935 1.66869 72.802
lradius 78.6406
lwrist 87.0142
lhand -44.2964 -13.6431
lfingers 7.12502
lthumb -17.1065 15.6238
rfemur -19.3329 11.0781 11.018
rtibia -11.1322
rfoot -1.14498 -16.5096
rtoes 0.840194
lfemur 7.72293 8.09524 -14.3806
ltibia -48.464
lfoot 22.292 17.4365
ltoes 0.134257
410
root 2.33343 17.6704 3.69594 22.8406 -19.2232 -11.3647
lowerback 30.1869 1.39796 -3.90743
upperback 6.09733 0.151458 -2.38216
thorax -9.73024 0.0819616 -0.485321
lowerneck -15.8089 9.40813 10.9242
upperneck 21.8037 11.7573 -6.62842
head 10.683 5.50665 -2.45068
rclavicle 3.18055e-015 1.74931e-014
rhumerus -44.6719 45.3443 -95.5085
rradius 102.195
rwrist -1.72894
rhand -18.365 -68.516
rfingers 7.12502
rthumb 7.91805 -261.652
lclavicle 3.18055e-015 1.74931e-014
lhumerus 1.64914 1.00602 74.0388
lradius 80.7528
lwrist 87.0832
lhand -44.8071 -15.0283
lfingers 7.12502
lthumb -17.598 14.1953
rfemur -18.7752 11.0757 10.7254
rtibia -11.0723
rfoot -1.64938 -16.7857
rtoes 0.727552
lfemur 7.92598 7.52719 -14.556
ltibia -48.1343
lfoot 21.9509 17.3993
ltoes 0.332811
411
root 2.3376 17.6822 3.74203 22.4355 -18.7524 -11.0902
lowerback 29.8851 1.19057 -3.67396
upperback 5.94859 -0.0282884 -2.45663
thorax -9.75079 -0.00302596 -0.636008
lowerneck -15.4113 9.35086 11.0031
upperneck 22.346 11.6698 -6.41163
head 10.7896 5.50108 -2.41498
rclavicle -2.06736e-014 6.67916e-014
rhumerus -47.8982 44.1728 -96.4571
rradius 103.271
rwrist -0.479224
rhand -17.9889 -68.4353
rfingers 7.12502
rthumb 8.28105 -261.747
lclavicle -2.06736e-014 6.67916e-014
lhumerus -1.02868 0.576331 75.4417
lradius 82.7042
lwrist 87.2739
lhand -45.1678 -16.6384
lfingers 7.12502
lthumb -17.9451 12.5537
rfemur -18.1698 11.0491 10.5138
rtibia -11.0071
rfoot -2.18004 -17.0333
rtoes 0.998295
lfemur 8.14782 6.96201 -14.6689
ltibia -47.7844
lfoot 21.6753 17.2591
ltoes 0.192267
412
root 2.34062 17.6939 3.7873 21.9945 -18.317 -10.823
lowerback 29.6968 1.03296 -3.53051
upperback 5.8836 -0.179115 -2.52877
thorax -9.73173 -0.0747185 -0.743547
lowerneck -15.2474 9.33096 11.0023
upperneck 22.9229 11.6106 -6.11383
head 10.9463 5.50552 -2.32336
rclavicle 0 5.88403e-014
rhumerus -51.1139 43.1531 -97.5773
rradius 104.3
rwrist 0.329227
rhand -18.5224 -68.0959
rfingers 7.12502
rthumb 7.76618 -262.067
lclavicle 0 5.88403e-014
lhumerus -3.43013 0.33711 76.9713
lradius 84.4226
lwrist 87.3286
lhand -45.4943 -18.1589
lfingers 7.12502
lthumb -18.2592 11.0041
rfemur -17.463 11.0241 10.3226
rtibia -11.0545
rfoot -2.68786 -17.2857
rtoes 1.47401
lfemur 8.41855 6.4304 -14.7947
ltibia -47.443
lfoot 21.4666 16.9557
ltoes -0.469452
413
root 2.34438 17.7059 3.83305 21.3924 -17.8307 -10.5623
lowerback 29.7375 0.89346 -3.37981
upperback 5.94838 -0.317031 -2.61151
thorax -9.67777 -0.143311 -0.873032
lowerneck -15.1641 9.30272 11.0678
upperneck 23.3263 11.5204 -5.87948
head 11.0612 5.49509 -2.26656
rclavicle 1.59028e-015 3.65764e-014
rhumerus -54.0787 42.1208 -98.6358
rradius 105.33
rwrist 1.38971
rhand -18.8681 -67.8166
rfingers 7.12502
rthumb 7.43247 -262.334
lclavicle 1.59028e-015 3.65764e-014
lhumerus -5.63278 0.225884 78.5432
lradius 86.0721
lwrist 87.2052
lhand -45.7448 -19.1392
lfingers 7.12502
lthumb -18.5002 10.0011
rfemur -16.5457 11.0964 10.1491
rtibia -11.1382
rfoot -3.20246 -17.583
rtoes 1.33679
lfemur 8.88255 5.82285 -14.8886
ltibia -47.1194
lfoot 21.1956 16.7663
ltoes -0.828859
414
root 2.34488 17.7109 3.85805 21.133 -17.1003 -10.2577
lowerback 29.5797 0.700389 -3.26546
upperback 5.97447 -0.516322 -2.65275
thorax -9.57039 -0.237548 -0.910785
lowerneck -14.9334 9.22989 11.2199
upperneck 23.3658 11.3923 -5.83114
head 11.027 5.46108 -2.3033
rclavicle -2.38542e-014 -3.97569e-014
rhumerus -56.6755 41.0198 -99.4091
rradius 106.15
rwrist 2.55231
rhand -18.7918 -67.4358
rfingers 7.12502
rthumb 7.50613 -262.717
lclavicle -2.38542e-014 -3.97569e-014
lhumerus -7.73061 0.173902 80.0785
lradius 87.7024
lwrist 87.1186
lhand -45.485 -19.7355
lfingers 7.12502
lthumb -18.2503 9.42831
rfemur -16.0132 11.1409 9.8801
rtibia -11.2427
rfoot -3.84959 -18.1047
rtoes 1.18091
lfemur 8.87298 5.17416 -14.9861
ltibia -46.8632
lfoot 21.0448 16.6139
ltoes -0.635944
415
root 2.34696 17.714 3.87745 20.8966 -16.4762 -10.0398
lowerback 29.5431 0.575754 -3.21068
upperback 6.04414 -0.65398 -2.69423
thorax -9.47312 -0.30285 -0.938028
lowerneck -14.6828 9.1576 11.3794
upperneck 23.196 11.2632 -5.80824
head 10.913 5.42617 -2.35157
rclavicle 2.38542e-014 -4.13472e-014
rhumerus -58.838 39.9771 -100.048
rradius 106.573
rwrist 3.42906
rhand -19.0781 -67.0841
rfingers 7.12502
rthumb 7.22972 -263.059
lclavicle 2.38542e-014 -4.13472e-014
lhumerus -9.5318 0.233852 81.5106
lradius 89.0714
lwrist 87.044
lhand -44.5343 -20.1349
lfingers 7.12502
lthumb -17.3355 9.11196
rfemur -15.5172 11.0773 9.72957
rtibia -11.3796
rfoot -4.28683 -18.4742
rtoes 1.08401
lfemur 8.90289 4.65542 -15.0513
ltibia -46.6818
lfoot 20.9377 16.4947
ltoes -0.254421
416
root 2.35001 17.7158 3.8892 20.7846 -15.9666 -9.94906
lowerback 29.5448 0.496972 -3.17896
upperback 6.14194 -0.742129 -2.72884
thorax -9.36272 -0.345516 -0.962377
lowerneck -14.6023 9.10551 11.4951
upperneck 23.0084 11.149 -5.76085
head 10.822 5.39286 -2.37478
rclavicle -2.70347e-014 -2.70347e-014
rhumerus -60.515 39.1431 -100.659
rradius 106.656
rwrist 4.28978
rhand -19.586 -67.1343
rfingers 7.12502
rthumb 6.73949 -262.993
lclavicle -2.70347e-014 -2.70347e-014
lhumerus -10.9709 0.450918 82.7622
lradius 90.1148
lwrist 87.005
lhand -43.7608 -20.3991
lfingers 7.12502
lthumb -16.5909 8.9117
rfemur -15.1716 10.8913 9.7326
rtibia -11.5413
rfoot -4.42905 -18.684
rtoes 0.847104
lfemur 8.87906 4.32389 -15.0409
ltibia -46.606
lfoot 20.9414 16.3118
ltoes -0.182557
417
root 2.35233 17.715 3.88919 20.8379 -15.4542 -9.94304
lowerback 29.59 0.454545 -3.20043
upperback 6.21527 -0.794958 -2.6922
thorax -9.29986 -0.369145 -0.889002
lowerneck -14.6337 9.07515 11.6471
upperneck 22.8559 11.0764 -5.83056
head 10.7794 5.36545 -2.43415
rclavicle -4.45278e-014 3.65764e-014
rhumerus -61.8137 38.5414 -101.242
rradius 106.603
rwrist 5.39592
rhand -19.738 -67.1421
rfingers 7.12502
rthumb 6.59273 -262.981
lclavicle -4.45278e-014 3.65764e-014
lhumerus -12.1391 0.718953 83.8519
lradius 90.9354
lwrist 87.0724
lhand -43.5913 -20.5668
lfingers 7.12502
lthumb -16.4277 8.75755
rfemur -15.1113 10.6618 9.81646
rtibia -11.5282
rfoot -4.67855 -18.8057
rtoes 1.25176
lfemur 8.70568 4.10169 -14.9445
ltibia -46.6146
lfoot 21.0463 16.0505
ltoes -0.415778
418
root 2.3581 17.71 3.88444 21.0566 -15.0324 -10.0366
lowerback 29.5735 0.454585 -3.23665
upperback 6.26154 -0.792375 -2.61794
thorax -9.23704 -0.366438 -0.784759
lowerneck -14.79 9.10165 11.7627
upperneck 22.8676 11.061 -5.80855
head 10.8189 5.3672 -2.44034
rclavicle -3.02153e-014 -1.90833e-014
rhumerus -62.7385 38.1448 -101.805
rradius 106.363
rwrist 6.46533
rhand -19.1959 -66.6369
rfingers 7.12502
rthumb 7.11606 -263.503
lclavicle -3.02153e-014 -1.90833e-014
lhumerus -13.0053 1.05954 84.7605
lradius 91.4992
lwrist 87.1041
lhand -43.6259 -20.6804
lfingers 7.12502
lthumb -16.4611 8.64128
rfemur -15.3485 10.4077 9.94891
rtibia -11.3508
rfoot -4.92262 -18.7922
rtoes 1.68942
lfemur 8.42187 3.92356 -14.7793
ltibia -46.7104
lfoot 21.1989 15.9
ltoes -0.546202
